<?xml version="1.0" encoding="UTF-8" standalone="no"?>
<!-- Created with Inkscape (http://www.inkscape.org/) -->

<svg
   xmlns:dc="http://purl.org/dc/elements/1.1/"
   xmlns:cc="http://creativecommons.org/ns#"
   xmlns:rdf="http://www.w3.org/1999/02/22-rdf-syntax-ns#"
   xmlns:svg="http://www.w3.org/2000/svg"
   xmlns="http://www.w3.org/2000/svg"
   xmlns:sodipodi="http://sodipodi.sourceforge.net/DTD/sodipodi-0.dtd"
   xmlns:inkscape="http://www.inkscape.org/namespaces/inkscape"
   width="991"
   height="1500"
   viewBox="0 0 991 1500"
   id="svg2"
   version="1.1"
   inkscape:version="0.91 r13725"
   sodipodi:docname="plantila1-publicidad-hotspot-login.svg"
   inkscape:export-filename="/PROJECTS/JAVA/WEB/LitroDeLuzRadius2AdminWeb/docs/hotspot/plantila1-publicidad-hotspot-login.png"
   inkscape:export-xdpi="90"
   inkscape:export-ydpi="90">
  <defs
     id="defs4" />
  <sodipodi:namedview
     id="base"
     pagecolor="#ffffff"
     bordercolor="#666666"
     borderopacity="1.0"
     inkscape:pageopacity="0.0"
     inkscape:pageshadow="2"
     inkscape:zoom="0.35"
     inkscape:cx="727.66076"
     inkscape:cy="763.46997"
     inkscape:document-units="px"
     inkscape:current-layer="layer2"
     showgrid="false"
     units="px"
     inkscape:window-width="1920"
     inkscape:window-height="1043"
     inkscape:window-x="0"
     inkscape:window-y="0"
     inkscape:window-maximized="1" />
  <metadata
     id="metadata7">
    <rdf:RDF>
      <cc:Work
         rdf:about="">
        <dc:format>image/svg+xml</dc:format>
        <dc:type
           rdf:resource="http://purl.org/dc/dcmitype/StillImage" />
        <dc:title></dc:title>
      </cc:Work>
    </rdf:RDF>
  </metadata>
  <g
     inkscape:label="Layer 1"
     inkscape:groupmode="layer"
     id="layer1"
     transform="translate(0,447.63784)">
    <path
       style="fill:#b3b3b3;fill-opacity:1;stroke:none;stroke-width:12;stroke-linecap:round;stroke-linejoin:miter;stroke-miterlimit:4;stroke-dasharray:none;stroke-dashoffset:0;stroke-opacity:1"
       d="m 0,-447.63788 2301,0 0,1499.99998 -2301,0 z"
       id="rect4136"
       inkscape:connector-curvature="0" />
    <path
       style="fill:#000000;fill-opacity:0.72248804;stroke:none;stroke-width:12;stroke-linecap:round;stroke-linejoin:miter;stroke-miterlimit:4;stroke-dasharray:none;stroke-dashoffset:0;stroke-opacity:1"
       d="m 0,-447.63788 2301,0 0,1499.99998 -2301,0 z"
       id="rect4140"
       inkscape:connector-curvature="0" />
    <g
       transform="translate(0,-447.63784)"
       style="font-style:normal;font-weight:normal;font-size:250px;line-height:125%;font-family:sans-serif;text-align:center;letter-spacing:0.0000001px;word-spacing:0px;text-anchor:middle;fill:#000000;fill-opacity:1;stroke:none;stroke-width:1px;stroke-linecap:butt;stroke-linejoin:miter;stroke-opacity:1"
       id="flowRoot4161" />
  </g>
  <g
     inkscape:groupmode="layer"
     id="layer2"
     inkscape:label="Layer 2"
     style="display:inline">
    <path
       inkscape:connector-curvature="0"
       style="fill:#b3b3b3;fill-opacity:1;stroke:#ffffff;stroke-width:20.32034683;stroke-linecap:butt;stroke-linejoin:miter;stroke-miterlimit:4;stroke-dasharray:40.64069466, 40.64069466;stroke-dashoffset:21.20000076;stroke-opacity:1"
       d="m 298.0153,10.16012 1704.9694,0 0,1479.67978 -1704.9694,0 z"
       id="rect4138" />
    <g
       transform="translate(4e-5,447.6378)"
       style="font-style:normal;font-variant:normal;font-weight:bold;font-stretch:normal;font-size:187.5px;line-height:125%;font-family:sans-serif;-inkscape-font-specification:'sans-serif Bold';text-align:center;letter-spacing:0.0000001px;word-spacing:0px;text-anchor:middle;fill:#ffffff;fill-opacity:1;stroke:none;stroke-width:1px;stroke-linecap:butt;stroke-linejoin:miter;stroke-opacity:1"
       id="text4169">
      <path
         inkscape:connector-curvature="0"
         d="m 504.45947,-130.62508 40.1001,0 0,17.27295 -66.22315,0 0,-17.27295 33.26417,-29.35791 q 4.45556,-4.02832 6.59179,-7.87353 2.13623,-3.84522 2.13623,-7.99561 0,-6.40869 -4.33349,-10.31494 -4.27246,-3.90625 -11.41358,-3.90625 -5.49316,0 -12.02392,2.38037 -6.53077,2.31934 -13.97705,6.95801 l 0,-20.01953 q 7.93457,-2.62451 15.68603,-3.96729 7.75147,-1.4038 15.19775,-1.4038 16.35743,0 25.39063,7.20214 9.09424,7.20215 9.09424,20.08057 0,7.44629 -3.84522,13.91602 -3.84521,6.40869 -16.17431,17.21191 l -19.47022,17.08984 z"
         style="font-size:125px"
         id="path4195" />
      <path
         inkscape:connector-curvature="0"
         d="m 613.59033,-162.48543 q 9.21631,2.38037 13.97705,8.30078 4.82178,5.85938 4.82178,14.95362 0,13.5498 -10.37598,20.62988 -10.37597,7.01904 -30.27343,7.01904 -7.01905,0 -14.09913,-1.15967 -7.01904,-1.09863 -13.91601,-3.35693 l 0,-18.12744 q 6.5918,3.2959 13.06152,5.00488 6.53076,1.64795 12.81738,1.64795 9.33838,0 14.28223,-3.23486 5.00488,-3.23487 5.00488,-9.27735 0,-6.22558 -5.12695,-9.39941 -5.06592,-3.23486 -15.01465,-3.23486 l -9.39941,0 0,-15.13672 9.88769,0 q 8.8501,0 13.1836,-2.74658 4.33349,-2.80762 4.33349,-8.48389 0,-5.24902 -4.21142,-8.11768 -4.21143,-2.86865 -11.90186,-2.86865 -5.67627,0 -11.47461,1.28174 -5.79834,1.28174 -11.53564,3.78418 l 0,-17.21191 q 6.95801,-1.95313 13.79394,-2.92969 6.83594,-0.97656 13.42774,-0.97656 17.76123,0 26.55029,5.85937 8.8501,5.79834 8.8501,17.51709 0,7.99561 -4.21143,13.12256 -4.21142,5.06592 -12.45117,7.14111 z"
         style="font-size:125px"
         id="path4197" />
      <path
         inkscape:connector-curvature="0"
         d="m 699.77197,-159.00642 q 0,-17.08985 -3.23486,-24.04786 -3.17383,-7.01904 -10.74219,-7.01904 -7.56836,0 -10.80322,7.01904 -3.23486,6.95801 -3.23486,24.04786 0,17.27295 3.23486,24.35302 3.23486,7.08008 10.80322,7.08008 7.50733,0 10.74219,-7.08008 3.23486,-7.08007 3.23486,-24.35302 z m 23.49854,0.1831 q 0,22.64404 -9.76563,34.97315 -9.76562,12.26806 -27.70996,12.26806 -18.00537,0 -27.771,-12.26806 -9.76562,-12.32911 -9.76562,-34.97315 0,-22.70508 9.76562,-34.97314 9.76563,-12.3291 27.771,-12.3291 17.94434,0 27.70996,12.3291 9.76563,12.26806 9.76563,34.97314 z"
         style="font-size:125px"
         id="path4199" />
      <path
         inkscape:connector-curvature="0"
         d="m 743.83935,-129.58748 20.75196,0 0,-58.89892 -21.30127,4.39453 0,-15.99121 21.1792,-4.39454 22.33886,0 0,74.89014 20.75196,0 0,16.23535 -63.72071,0 0,-16.23535 z"
         style="font-size:125px"
         id="path4201" />
      <path
         inkscape:connector-curvature="0"
         d="m 843.87598,-148.32527 -24.65821,-33.38623 23.13233,0 13.97705,20.26367 14.16015,-20.26367 23.13233,0 -24.65821,33.26416 25.87891,35.09521 -23.13232,0 -15.38086,-21.60644 -15.19776,21.60644 -23.13232,0 25.87891,-34.97314 z"
         style="font-size:125px"
         id="path4203" />
      <path
         inkscape:connector-curvature="0"
         d="m 911.31982,-129.58748 20.75196,0 0,-58.89892 -21.30127,4.39453 0,-15.99121 21.1792,-4.39454 22.33886,0 0,74.89014 20.75196,0 0,16.23535 -63.72071,0 0,-16.23535 z"
         style="font-size:125px"
         id="path4205" />
      <path
         inkscape:connector-curvature="0"
         d="m 996.83008,-204.47762 58.41062,0 0,17.27295 -39.6728,0 0,14.09912 q 2.6855,-0.73242 5.3711,-1.09863 2.7465,-0.42724 5.6762,-0.42724 16.6626,0 25.94,8.36181 9.2773,8.30078 9.2773,23.19336 0,14.77051 -10.1318,23.13233 -10.0708,8.36181 -28.0152,8.36181 -7.7514,0 -15.3808,-1.52588 -7.5684,-1.46484 -15.0757,-4.5166 l 0,-18.49365 q 7.4463,4.27246 14.0991,6.40869 6.7139,2.13623 12.6343,2.13623 8.5449,0 13.4277,-4.15039 4.9439,-4.21142 4.9439,-11.35254 0,-7.20215 -4.9439,-11.35254 -4.8828,-4.15039 -13.4277,-4.15039 -5.0659,0 -10.8032,1.34278 -5.7373,1.28173 -12.32912,4.02832 l 0,-51.26954 z"
         style="font-size:125px"
         id="path4207" />
      <path
         inkscape:connector-curvature="0"
         d="m 1127.9946,-159.00642 q 0,-17.08985 -3.2348,-24.04786 -3.1739,-7.01904 -10.7422,-7.01904 -7.5684,0 -10.8032,7.01904 -3.2349,6.95801 -3.2349,24.04786 0,17.27295 3.2349,24.35302 3.2348,7.08008 10.8032,7.08008 7.5073,0 10.7422,-7.08008 3.2348,-7.08007 3.2348,-24.35302 z m 23.4986,0.1831 q 0,22.64404 -9.7657,34.97315 -9.7656,12.26806 -27.7099,12.26806 -18.0054,0 -27.771,-12.26806 -9.7656,-12.32911 -9.7656,-34.97315 0,-22.70508 9.7656,-34.97314 9.7656,-12.3291 27.771,-12.3291 17.9443,0 27.7099,12.3291 9.7657,12.26806 9.7657,34.97314 z"
         style="font-size:125px"
         id="path4209" />
      <path
         inkscape:connector-curvature="0"
         d="m 1214.9087,-159.00642 q 0,-17.08985 -3.2349,-24.04786 -3.1738,-7.01904 -10.7422,-7.01904 -7.5683,0 -10.8032,7.01904 -3.2348,6.95801 -3.2348,24.04786 0,17.27295 3.2348,24.35302 3.2349,7.08008 10.8032,7.08008 7.5074,0 10.7422,-7.08008 3.2349,-7.08007 3.2349,-24.35302 z m 23.4985,0.1831 q 0,22.64404 -9.7656,34.97315 -9.7656,12.26806 -27.71,12.26806 -18.0053,0 -27.771,-12.26806 -9.7656,-12.32911 -9.7656,-34.97315 0,-22.70508 9.7656,-34.97314 9.7657,-12.3291 27.771,-12.3291 17.9444,0 27.71,12.3291 9.7656,12.26806 9.7656,34.97314 z"
         style="font-size:125px"
         id="path4211" />
      <path
         inkscape:connector-curvature="0"
         d="m 1299.2593,-204.47762 39.0014,0 q 17.3951,0 26.6724,7.75147 9.3384,7.69043 9.3384,21.97266 0,14.34326 -9.3384,22.09472 -9.2773,7.69043 -26.6724,7.69043 l -15.5029,0 0,31.61621 -23.4985,0 0,-91.12549 z m 23.4985,17.02881 0,25.45166 13.0005,0 q 6.8359,0 10.5591,-3.2959 3.7231,-3.35693 3.7231,-9.46044 0,-6.10352 -3.7231,-9.39942 -3.7232,-3.2959 -10.5591,-3.2959 l -13.0005,0 z"
         style="font-size:125px"
         id="path4213" />
      <path
         inkscape:connector-curvature="0"
         d="m 1390.812,-204.47762 23.4985,0 0,91.12549 -23.4985,0 0,-91.12549 z"
         style="font-size:125px"
         id="path4215" />
      <path
         inkscape:connector-curvature="0"
         d="m 1488.2241,-159.86092 31.6162,46.50879 -24.4751,0 -21.3012,-31.12793 -21.1182,31.12793 -24.5972,0 31.6162,-46.50879 -30.3955,-44.6167 24.5362,0 19.9585,29.35791 19.8974,-29.35791 24.6582,0 -30.3955,44.6167 z"
         style="font-size:125px"
         id="path4217" />
      <path
         inkscape:connector-curvature="0"
         d="m 1533.8784,-204.47762 63.4155,0 0,17.76124 -39.9169,0 0,16.96777 37.5366,0 0,17.76123 -37.5366,0 0,20.87402 41.2597,0 0,17.76123 -64.7583,0 0,-91.12549 z"
         style="font-size:125px"
         id="path4219" />
      <path
         inkscape:connector-curvature="0"
         d="m 1619.3276,-204.47762 23.4986,0 0,73.36426 41.2597,0 0,17.76123 -64.7583,0 0,-91.12549 z"
         style="font-size:125px"
         id="path4221" />
      <path
         inkscape:connector-curvature="0"
         d="m 1698.9175,-204.47762 63.4155,0 0,17.76124 -39.917,0 0,16.96777 37.5366,0 0,17.76123 -37.5366,0 0,20.87402 41.2598,0 0,17.76123 -64.7583,0 0,-91.12549 z"
         style="font-size:125px"
         id="path4223" />
      <path
         inkscape:connector-curvature="0"
         d="m 1847.7822,-201.60896 0,19.28711 q -7.5073,-3.35694 -14.6484,-5.06592 -7.1411,-1.70899 -13.4888,-1.70899 -8.4228,0 -12.4512,2.31934 -4.0283,2.31934 -4.0283,7.20215 0,3.66211 2.6856,5.7373 2.7466,2.01416 9.8877,3.47901 l 10.0097,2.01416 q 15.1978,3.05175 21.6065,9.27734 6.4087,6.22559 6.4087,17.7002 0,15.07568 -8.9722,22.46093 -8.9111,7.32422 -27.2827,7.32422 -8.667,0 -17.395,-1.64795 -8.7281,-1.64795 -17.4561,-4.88281 l 0,-19.83643 q 8.728,4.63868 16.8457,7.01905 8.1787,2.31933 15.7471,2.31933 7.6904,0 11.7798,-2.56347 4.0893,-2.56348 4.0893,-7.32422 0,-4.27246 -2.8076,-6.5918 -2.7466,-2.31933 -11.0474,-4.15039 l -9.0942,-2.01416 q -13.6719,-2.92969 -20.0195,-9.33838 -6.2866,-6.40869 -6.2866,-17.27295 0,-13.61084 8.789,-20.93506 8.7891,-7.32421 25.2686,-7.32421 7.5073,0 15.4419,1.15966 7.9345,1.09864 16.4184,3.35694 z"
         style="font-size:125px"
         id="path4225" />
    </g>
    <g
       transform="translate(4e-5,447.6378)"
       style="font-style:normal;font-weight:normal;font-size:93.75px;line-height:125%;font-family:sans-serif;text-align:center;letter-spacing:0.0000001px;word-spacing:0px;text-anchor:middle;fill:#000000;fill-opacity:1;stroke:none;stroke-width:1px;stroke-linecap:butt;stroke-linejoin:miter;stroke-opacity:1"
       id="text4177">
      <path
         inkscape:connector-curvature="0"
         d="m 606.56726,684.01813 47.56165,0 0,13.32092 -29.93775,0 0,12.72583 28.15247,0 0,13.32092 -28.15247,0 0,15.65552 30.94483,0 0,13.32092 -48.56873,0 0,-68.34411 z"
         style="font-style:normal;font-variant:normal;font-weight:bold;font-stretch:normal;font-size:93.75px;font-family:sans-serif;-inkscape-font-specification:'sans-serif Bold';fill:#ffffff"
         id="path4228" />
      <path
         inkscape:connector-curvature="0"
         d="m 670.65417,684.01813 17.62391,0 0,55.02319 30.94482,0 0,13.32092 -48.56873,0 0,-68.34411 z"
         style="font-style:normal;font-variant:normal;font-weight:bold;font-stretch:normal;font-size:93.75px;font-family:sans-serif;-inkscape-font-specification:'sans-serif Bold';fill:#ffffff"
         id="path4230" />
      <path
         inkscape:connector-curvature="0"
         d="m 762.93933,684.01813 47.56165,0 0,13.32092 -29.93775,0 0,12.72583 28.15247,0 0,13.32092 -28.15247,0 0,28.97644 -17.6239,0 0,-68.34411 z"
         style="font-style:normal;font-variant:normal;font-weight:bold;font-stretch:normal;font-size:93.75px;font-family:sans-serif;-inkscape-font-specification:'sans-serif Bold';fill:#ffffff"
         id="path4232" />
      <path
         inkscape:connector-curvature="0"
         d="m 858.24573,695.55377 q -8.05664,0 -12.49695,5.95093 -4.44031,5.95093 -4.44031,16.75415 0,10.75745 4.44031,16.70837 4.44031,5.95093 12.49695,5.95093 8.10241,0 12.54272,-5.95093 4.44031,-5.95092 4.44031,-16.70837 0,-10.80322 -4.44031,-16.75415 -4.44031,-5.95093 -12.54272,-5.95093 z m 0,-12.7716 q 16.47949,0 25.81787,9.42993 9.33838,9.42993 9.33838,26.04675 0,16.57105 -9.33838,26.00098 -9.33838,9.42993 -25.81787,9.42993 -16.43372,0 -25.81787,-9.42993 -9.33838,-9.42993 -9.33838,-26.00098 0,-16.61682 9.33838,-26.04675 9.38415,-9.42993 25.81787,-9.42993 z"
         style="font-style:normal;font-variant:normal;font-weight:bold;font-stretch:normal;font-size:93.75px;font-family:sans-serif;-inkscape-font-specification:'sans-serif Bold';fill:#ffffff"
         id="path4234" />
      <path
         inkscape:connector-curvature="0"
         d="m 960.87634,748.60858 q -4.85229,2.5177 -10.11658,3.79944 -5.26428,1.28174 -10.98632,1.28174 -17.07459,0 -27.05384,-9.52149 -9.97924,-9.56726 -9.97924,-25.90942 0,-16.38794 9.97924,-25.90942 9.97925,-9.56726 27.05384,-9.56726 5.72204,0 10.98632,1.28173 5.26429,1.28174 10.11658,3.79944 l 0,14.1449 q -4.89807,-3.34168 -9.65881,-4.89807 -4.76074,-1.5564 -10.02503,-1.5564 -9.42993,0 -14.83154,6.04248 -5.40161,6.04248 -5.40161,16.6626 0,10.57434 5.40161,16.61682 5.40161,6.04248 14.83154,6.04248 5.26429,0 10.02503,-1.55639 4.76074,-1.5564 9.65881,-4.89808 l 0,14.1449 z"
         style="font-style:normal;font-variant:normal;font-weight:bold;font-stretch:normal;font-size:93.75px;font-family:sans-serif;-inkscape-font-specification:'sans-serif Bold';fill:#ffffff"
         id="path4236" />
      <path
         inkscape:connector-curvature="0"
         d="m 1006.7443,695.55377 q -8.05668,0 -12.49699,5.95093 -4.4403,5.95093 -4.4403,16.75415 0,10.75745 4.4403,16.70837 4.44031,5.95093 12.49699,5.95093 8.1024,0 12.5427,-5.95093 4.4403,-5.95092 4.4403,-16.70837 0,-10.80322 -4.4403,-16.75415 -4.4403,-5.95093 -12.5427,-5.95093 z m 0,-12.7716 q 16.4795,0 25.8178,9.42993 9.3384,9.42993 9.3384,26.04675 0,16.57105 -9.3384,26.00098 -9.3383,9.42993 -25.8178,9.42993 -16.43375,0 -25.81791,-9.42993 -9.33838,-9.42993 -9.33838,-26.00098 0,-16.61682 9.33838,-26.04675 9.38416,-9.42993 25.81791,-9.42993 z"
         style="font-style:normal;font-variant:normal;font-weight:bold;font-stretch:normal;font-size:93.75px;font-family:sans-serif;-inkscape-font-specification:'sans-serif Bold';fill:#ffffff"
         id="path4238" />
      <path
         inkscape:connector-curvature="0"
         d="m 1105.3923,697.33905 0,41.70227 6.3172,0 q 10.8032,0 16.4795,-5.35583 5.722,-5.35584 5.722,-15.56397 0,-10.16235 -5.6763,-15.47241 -5.6762,-5.31006 -16.5252,-5.31006 l -6.3172,0 z m -17.6239,-13.32092 18.5852,0 q 15.564,0 23.1629,2.24304 7.6446,2.19727 13.092,7.50732 4.8065,4.62342 7.1411,10.6659 2.3346,6.04248 2.3346,13.68713 0,7.73621 -2.3346,13.82446 -2.3346,6.04248 -7.1411,10.6659 -5.4931,5.31006 -13.1836,7.5531 -7.6904,2.19726 -23.0713,2.19726 l -18.5852,0 0,-68.34411 z"
         style="font-style:normal;font-variant:normal;font-weight:bold;font-stretch:normal;font-size:93.75px;font-family:sans-serif;-inkscape-font-specification:'sans-serif Bold';fill:#ffffff"
         id="path4240" />
      <path
         inkscape:connector-curvature="0"
         d="m 1165.5883,684.01813 47.5616,0 0,13.32092 -29.9377,0 0,12.72583 28.1524,0 0,13.32092 -28.1524,0 0,15.65552 30.9448,0 0,13.32092 -48.5687,0 0,-68.34411 z"
         style="font-style:normal;font-variant:normal;font-weight:bold;font-stretch:normal;font-size:93.75px;font-family:sans-serif;-inkscape-font-specification:'sans-serif Bold';fill:#ffffff"
         id="path4242" />
      <path
         inkscape:connector-curvature="0"
         d="m 1229.6752,684.01813 17.6239,0 0,55.02319 30.9448,0 0,13.32092 -48.5687,0 0,-68.34411 z"
         style="font-style:normal;font-variant:normal;font-weight:bold;font-stretch:normal;font-size:93.75px;font-family:sans-serif;-inkscape-font-specification:'sans-serif Bold';fill:#ffffff"
         id="path4244" />
      <path
         inkscape:connector-curvature="0"
         d="m 1349.3346,710.47687 q 4.1656,0 6.3171,-1.83106 2.1515,-1.83105 2.1515,-5.40161 0,-3.52478 -2.1515,-5.35583 -2.1515,-1.87683 -6.3171,-1.87683 l -9.7504,0 0,14.46533 9.7504,0 z m 0.5951,29.89197 q 5.31,0 7.9651,-2.24305 2.7008,-2.24304 2.7008,-6.7749 0,-4.44031 -2.655,-6.63757 -2.6551,-2.24304 -8.0109,-2.24304 l -10.3455,0 0,17.89856 10.3455,0 z m 16.3879,-24.58191 q 5.6763,1.64795 8.7891,6.08825 3.1128,4.44031 3.1128,10.89478 0,9.88769 -6.6834,14.73999 -6.6833,4.85229 -20.3247,4.85229 l -29.2511,0 0,-68.34411 26.4588,0 q 14.2364,0 20.5993,4.30298 6.4087,4.30297 6.4087,13.77868 0,4.98963 -2.3346,8.51441 -2.3346,3.479 -6.7749,5.17273 z"
         style="font-style:normal;font-variant:normal;font-weight:bold;font-stretch:normal;font-size:93.75px;font-family:sans-serif;-inkscape-font-specification:'sans-serif Bold';fill:#ffffff"
         id="path4246" />
      <path
         inkscape:connector-curvature="0"
         d="m 1434.8448,739.91107 -27.5573,0 -4.3488,12.45117 -17.7154,0 25.3143,-68.34411 21.0113,0 25.3144,68.34411 -17.7155,0 -4.303,-12.45117 z m -23.1628,-12.68005 18.7225,0 -9.3383,-27.19116 -9.3842,27.19116 z"
         style="font-style:normal;font-variant:normal;font-weight:bold;font-stretch:normal;font-size:93.75px;font-family:sans-serif;-inkscape-font-specification:'sans-serif Bold';fill:#ffffff"
         id="path4248" />
      <path
         inkscape:connector-curvature="0"
         d="m 1465.8812,684.01813 19.6839,0 24.8565,46.875 0,-46.875 16.7084,0 0,68.34411 -19.6838,0 -24.8566,-46.875 0,46.875 -16.7084,0 0,-68.34411 z"
         style="font-style:normal;font-variant:normal;font-weight:bold;font-stretch:normal;font-size:93.75px;font-family:sans-serif;-inkscape-font-specification:'sans-serif Bold';fill:#ffffff"
         id="path4250" />
      <path
         inkscape:connector-curvature="0"
         d="m 1544.4335,684.01813 19.6838,0 24.8566,46.875 0,-46.875 16.7084,0 0,68.34411 -19.6839,0 -24.8566,-46.875 0,46.875 -16.7083,0 0,-68.34411 z"
         style="font-style:normal;font-variant:normal;font-weight:bold;font-stretch:normal;font-size:93.75px;font-family:sans-serif;-inkscape-font-specification:'sans-serif Bold';fill:#ffffff"
         id="path4252" />
      <path
         inkscape:connector-curvature="0"
         d="m 1622.9857,684.01813 47.5617,0 0,13.32092 -29.9378,0 0,12.72583 28.1525,0 0,13.32092 -28.1525,0 0,15.65552 30.9448,0 0,13.32092 -48.5687,0 0,-68.34411 z"
         style="font-style:normal;font-variant:normal;font-weight:bold;font-stretch:normal;font-size:93.75px;font-family:sans-serif;-inkscape-font-specification:'sans-serif Bold';fill:#ffffff"
         id="path4254" />
      <path
         inkscape:connector-curvature="0"
         d="m 1712.1123,714.32208 q 5.5389,0 7.9193,-2.05993 2.4262,-2.05994 2.4262,-6.77491 0,-4.66919 -2.4262,-6.68335 -2.3804,-2.01416 -7.9193,-2.01416 l -7.4158,0 0,17.53235 7.4158,0 z m -7.4158,12.17652 0,25.86364 -17.6239,0 0,-68.34411 26.9165,0 q 13.5041,0 19.7754,4.53186 6.3172,4.53186 6.3172,14.328 0,6.7749 -3.2959,11.12366 -3.2502,4.34875 -9.842,6.40869 3.6164,0.82397 6.4545,3.75366 2.8839,2.88391 5.8136,8.78906 l 9.5673,19.40918 -18.7683,0 -8.3313,-16.98303 q -2.5177,-5.12695 -5.127,-7.00378 -2.5635,-1.87683 -6.8664,-1.87683 l -4.9897,0 z"
         style="font-style:normal;font-variant:normal;font-weight:bold;font-stretch:normal;font-size:93.75px;font-family:sans-serif;-inkscape-font-specification:'sans-serif Bold';fill:#ffffff"
         id="path4256" />
      <path
         inkscape:connector-curvature="0"
         d="m 502.70068,814.52655 0,41.70227 6.31714,0 q 10.80322,0 16.47949,-5.35583 5.72205,-5.35584 5.72205,-15.56397 0,-10.16235 -5.67627,-15.47241 -5.67627,-5.31006 -16.52527,-5.31006 l -6.31714,0 z m -17.6239,-13.32092 18.58521,0 q 15.56396,0 23.16284,2.24304 7.64465,2.19727 13.09204,7.50732 4.80652,4.62342 7.14111,10.6659 2.3346,6.04248 2.3346,13.68713 0,7.73621 -2.3346,13.82446 -2.33459,6.04248 -7.14111,10.6659 -5.49316,5.31006 -13.18359,7.5531 -7.69043,2.19726 -23.07129,2.19726 l -18.58521,0 0,-68.34411 z"
         style="font-style:normal;font-variant:normal;font-weight:bold;font-stretch:normal;font-size:93.75px;font-family:sans-serif;-inkscape-font-specification:'sans-serif Bold';fill:#ffffff"
         id="path4258" />
      <path
         inkscape:connector-curvature="0"
         d="m 562.89661,801.20563 47.56164,0 0,13.32092 -29.93774,0 0,12.72583 28.15246,0 0,13.32092 -28.15246,0 0,15.65552 30.94482,0 0,13.32092 -48.56872,0 0,-68.34411 z"
         style="font-style:normal;font-variant:normal;font-weight:bold;font-stretch:normal;font-size:93.75px;font-family:sans-serif;-inkscape-font-specification:'sans-serif Bold';fill:#ffffff"
         id="path4260" />
      <path
         inkscape:connector-curvature="0"
         d="m 654.35779,827.66437 q 4.16565,0 6.31714,-1.83106 2.15149,-1.83105 2.15149,-5.40161 0,-3.52478 -2.15149,-5.35583 -2.15149,-1.87683 -6.31714,-1.87683 l -9.75037,0 0,14.46533 9.75037,0 z m 0.59509,29.89197 q 5.31006,0 7.96509,-2.24305 2.7008,-2.24304 2.7008,-6.7749 0,-4.44031 -2.65503,-6.63757 -2.65503,-2.24304 -8.01086,-2.24304 l -10.34546,0 0,17.89856 10.34546,0 z m 16.38794,-24.58191 q 5.67627,1.64795 8.78906,6.08825 3.11279,4.44031 3.11279,10.89478 0,9.88769 -6.68334,14.73999 -6.68335,4.85229 -20.32471,4.85229 l -29.2511,0 0,-68.34411 26.45874,0 q 14.23645,0 20.59936,4.30298 6.4087,4.30297 6.4087,13.77868 0,4.98963 -2.3346,8.51441 -2.33459,3.479 -6.7749,5.17273 z"
         style="font-style:normal;font-variant:normal;font-weight:bold;font-stretch:normal;font-size:93.75px;font-family:sans-serif;-inkscape-font-specification:'sans-serif Bold';fill:#ffffff"
         id="path4262" />
      <path
         inkscape:connector-curvature="0"
         d="m 698.39465,801.20563 47.56165,0 0,13.32092 -29.93775,0 0,12.72583 28.15247,0 0,13.32092 -28.15247,0 0,15.65552 30.94483,0 0,13.32092 -48.56873,0 0,-68.34411 z"
         style="font-style:normal;font-variant:normal;font-weight:bold;font-stretch:normal;font-size:93.75px;font-family:sans-serif;-inkscape-font-specification:'sans-serif Bold';fill:#ffffff"
         id="path4264" />
      <path
         inkscape:connector-curvature="0"
         d="m 828.17065,870.78571 -1.37329,0 q -16.89148,0 -26.27563,-9.33838 -9.38416,-9.33838 -9.38416,-26.00098 0,-16.61682 9.33838,-26.04675 9.38416,-9.42993 25.81787,-9.42993 16.61682,0 25.86365,9.33837 9.2926,9.33838 9.2926,26.13831 0,11.53564 -4.94385,19.86694 -4.89807,8.3313 -14.14489,12.54273 l 13.77868,15.38086 -16.79992,0 -11.16944,-12.45117 z m -1.87683,-58.04444 q -8.05664,0 -12.49695,5.95093 -4.4403,5.95093 -4.4403,16.75415 0,10.98633 4.34875,16.8457 4.34876,5.8136 12.5885,5.8136 8.10242,0 12.54273,-5.95093 4.4403,-5.95092 4.4403,-16.70837 0,-10.80322 -4.4403,-16.75415 -4.44031,-5.95093 -12.54273,-5.95093 z"
         style="font-style:normal;font-variant:normal;font-weight:bold;font-stretch:normal;font-size:93.75px;font-family:sans-serif;-inkscape-font-specification:'sans-serif Bold';fill:#ffffff"
         id="path4266" />
      <path
         inkscape:connector-curvature="0"
         d="m 874.72522,801.20563 17.6239,0 0,40.96985 q 0,8.46862 2.74658,12.13073 2.79236,3.61634 9.06372,3.61634 6.31714,0 9.06372,-3.61634 2.79236,-3.66211 2.79236,-12.13073 l 0,-40.96985 17.6239,0 0,40.96985 q 0,14.5111 -7.27844,21.60644 -7.27844,7.09534 -22.20154,7.09534 -14.87732,0 -22.15576,-7.09534 -7.27844,-7.09534 -7.27844,-21.60644 l 0,-40.96985 z"
         style="font-style:normal;font-variant:normal;font-weight:bold;font-stretch:normal;font-size:93.75px;font-family:sans-serif;-inkscape-font-specification:'sans-serif Bold';fill:#ffffff"
         id="path4268" />
      <path
         inkscape:connector-curvature="0"
         d="m 950.89709,801.20563 47.56165,0 0,13.32092 -29.93774,0 0,12.72583 28.15246,0 0,13.32092 -28.15246,0 0,15.65552 30.94482,0 0,13.32092 -48.56873,0 0,-68.34411 z"
         style="font-style:normal;font-variant:normal;font-weight:bold;font-stretch:normal;font-size:93.75px;font-family:sans-serif;-inkscape-font-specification:'sans-serif Bold';fill:#ffffff"
         id="path4270" />
      <path
         inkscape:connector-curvature="0"
         d="m 1032.6079,814.52655 0,41.70227 6.3171,0 q 10.8033,0 16.4795,-5.35583 5.7221,-5.35584 5.7221,-15.56397 0,-10.16235 -5.6763,-15.47241 -5.6763,-5.31006 -16.5253,-5.31006 l -6.3171,0 z m -17.6239,-13.32092 18.5852,0 q 15.564,0 23.1629,2.24304 7.6446,2.19727 13.092,7.50732 4.8065,4.62342 7.1411,10.6659 2.3346,6.04248 2.3346,13.68713 0,7.73621 -2.3346,13.82446 -2.3346,6.04248 -7.1411,10.6659 -5.4932,5.31006 -13.1836,7.5531 -7.6904,2.19726 -23.0713,2.19726 l -18.5852,0 0,-68.34411 z"
         style="font-style:normal;font-variant:normal;font-weight:bold;font-stretch:normal;font-size:93.75px;font-family:sans-serif;-inkscape-font-specification:'sans-serif Bold';fill:#ffffff"
         id="path4272" />
      <path
         inkscape:connector-curvature="0"
         d="m 1134.2772,857.09857 -27.5574,0 -4.3487,12.45117 -17.7155,0 25.3144,-68.34411 21.0113,0 25.3144,68.34411 -17.7155,0 -4.303,-12.45117 z m -23.1628,-12.68005 18.7225,0 -9.3384,-27.19116 -9.3841,27.19116 z"
         style="font-style:normal;font-variant:normal;font-weight:bold;font-stretch:normal;font-size:93.75px;font-family:sans-serif;-inkscape-font-specification:'sans-serif Bold';fill:#ffffff"
         id="path4274" />
      <path
         inkscape:connector-curvature="0"
         d="m 1190.3533,831.50958 q 5.5389,0 7.9193,-2.05993 2.4261,-2.05994 2.4261,-6.77491 0,-4.66919 -2.4261,-6.68335 -2.3804,-2.01416 -7.9193,-2.01416 l -7.4158,0 0,17.53235 7.4158,0 z m -7.4158,12.17652 0,25.86364 -17.6239,0 0,-68.34411 26.9165,0 q 13.504,0 19.7754,4.53186 6.3171,4.53186 6.3171,14.328 0,6.7749 -3.2959,11.12366 -3.2501,4.34875 -9.8419,6.40869 3.6163,0.82397 6.4545,3.75366 2.8839,2.88391 5.8136,8.78906 l 9.5672,19.40918 -18.7683,0 -8.3313,-16.98303 q -2.5177,-5.12695 -5.1269,-7.00378 -2.5635,-1.87683 -6.8665,-1.87683 l -4.9896,0 z"
         style="font-style:normal;font-variant:normal;font-weight:bold;font-stretch:normal;font-size:93.75px;font-family:sans-serif;-inkscape-font-specification:'sans-serif Bold';fill:#ffffff"
         id="path4276" />
      <path
         inkscape:connector-curvature="0"
         d="m 1287.6738,814.52655 0,41.70227 6.3172,0 q 10.8032,0 16.4795,-5.35583 5.722,-5.35584 5.722,-15.56397 0,-10.16235 -5.6763,-15.47241 -5.6762,-5.31006 -16.5252,-5.31006 l -6.3172,0 z m -17.6239,-13.32092 18.5852,0 q 15.564,0 23.1629,2.24304 7.6446,2.19727 13.092,7.50732 4.8065,4.62342 7.1411,10.6659 2.3346,6.04248 2.3346,13.68713 0,7.73621 -2.3346,13.82446 -2.3346,6.04248 -7.1411,10.6659 -5.4932,5.31006 -13.1836,7.5531 -7.6904,2.19726 -23.0713,2.19726 l -18.5852,0 0,-68.34411 z"
         style="font-style:normal;font-variant:normal;font-weight:bold;font-stretch:normal;font-size:93.75px;font-family:sans-serif;-inkscape-font-specification:'sans-serif Bold';fill:#ffffff"
         id="path4278" />
      <path
         inkscape:connector-curvature="0"
         d="m 1347.8697,801.20563 47.5617,0 0,13.32092 -29.9377,0 0,12.72583 28.1524,0 0,13.32092 -28.1524,0 0,15.65552 30.9448,0 0,13.32092 -48.5688,0 0,-68.34411 z"
         style="font-style:normal;font-variant:normal;font-weight:bold;font-stretch:normal;font-size:93.75px;font-family:sans-serif;-inkscape-font-specification:'sans-serif Bold';fill:#ffffff"
         id="path4280" />
      <path
         inkscape:connector-curvature="0"
         d="m 1411.9567,801.20563 19.6838,0 24.8566,46.875 0,-46.875 16.7083,0 0,68.34411 -19.6838,0 -24.8566,-46.875 0,46.875 -16.7083,0 0,-68.34411 z"
         style="font-style:normal;font-variant:normal;font-weight:bold;font-stretch:normal;font-size:93.75px;font-family:sans-serif;-inkscape-font-specification:'sans-serif Bold';fill:#ffffff"
         id="path4282" />
      <path
         inkscape:connector-curvature="0"
         d="m 1482.3607,801.20563 62.9883,0 0,13.32092 -22.6593,0 0,55.02319 -17.6239,0 0,-55.02319 -22.7051,0 0,-13.32092 z"
         style="font-style:normal;font-variant:normal;font-weight:bold;font-stretch:normal;font-size:93.75px;font-family:sans-serif;-inkscape-font-specification:'sans-serif Bold';fill:#ffffff"
         id="path4284" />
      <path
         inkscape:connector-curvature="0"
         d="m 1579.4524,831.50958 q 5.5389,0 7.9193,-2.05993 2.4262,-2.05994 2.4262,-6.77491 0,-4.66919 -2.4262,-6.68335 -2.3804,-2.01416 -7.9193,-2.01416 l -7.4158,0 0,17.53235 7.4158,0 z m -7.4158,12.17652 0,25.86364 -17.6239,0 0,-68.34411 26.9165,0 q 13.5041,0 19.7754,4.53186 6.3172,4.53186 6.3172,14.328 0,6.7749 -3.2959,11.12366 -3.2502,4.34875 -9.842,6.40869 3.6164,0.82397 6.4545,3.75366 2.8839,2.88391 5.8136,8.78906 l 9.5673,19.40918 -18.7683,0 -8.3313,-16.98303 q -2.5177,-5.12695 -5.127,-7.00378 -2.5635,-1.87683 -6.8665,-1.87683 l -4.9896,0 z"
         style="font-style:normal;font-variant:normal;font-weight:bold;font-stretch:normal;font-size:93.75px;font-family:sans-serif;-inkscape-font-specification:'sans-serif Bold';fill:#ffffff"
         id="path4286" />
      <path
         inkscape:connector-curvature="0"
         d="m 1657.7758,812.74127 q -8.0567,0 -12.497,5.95093 -4.4403,5.95093 -4.4403,16.75415 0,10.75745 4.4403,16.70837 4.4403,5.95093 12.497,5.95093 8.1024,0 12.5427,-5.95093 4.4403,-5.95092 4.4403,-16.70837 0,-10.80322 -4.4403,-16.75415 -4.4403,-5.95093 -12.5427,-5.95093 z m 0,-12.7716 q 16.4794,0 25.8178,9.42993 9.3384,9.42993 9.3384,26.04675 0,16.57105 -9.3384,26.00098 -9.3384,9.42993 -25.8178,9.42993 -16.4338,0 -25.8179,-9.42993 -9.3384,-9.42993 -9.3384,-26.00098 0,-16.61682 9.3384,-26.04675 9.3841,-9.42993 25.8179,-9.42993 z"
         style="font-style:normal;font-variant:normal;font-weight:bold;font-stretch:normal;font-size:93.75px;font-family:sans-serif;-inkscape-font-specification:'sans-serif Bold';fill:#ffffff"
         id="path4288" />
      <path
         inkscape:connector-curvature="0"
         d="m 1756.4238,814.52655 0,41.70227 6.3172,0 q 10.8032,0 16.4795,-5.35583 5.722,-5.35584 5.722,-15.56397 0,-10.16235 -5.6763,-15.47241 -5.6762,-5.31006 -16.5252,-5.31006 l -6.3172,0 z m -17.6239,-13.32092 18.5852,0 q 15.564,0 23.1629,2.24304 7.6446,2.19727 13.092,7.50732 4.8065,4.62342 7.1411,10.6659 2.3346,6.04248 2.3346,13.68713 0,7.73621 -2.3346,13.82446 -2.3346,6.04248 -7.1411,10.6659 -5.4932,5.31006 -13.1836,7.5531 -7.6904,2.19726 -23.0713,2.19726 l -18.5852,0 0,-68.34411 z"
         style="font-style:normal;font-variant:normal;font-weight:bold;font-stretch:normal;font-size:93.75px;font-family:sans-serif;-inkscape-font-specification:'sans-serif Bold';fill:#ffffff"
         id="path4290" />
      <path
         inkscape:connector-curvature="0"
         d="m 1816.6197,801.20563 47.5617,0 0,13.32092 -29.9377,0 0,12.72583 28.1524,0 0,13.32092 -28.1524,0 0,15.65552 30.9448,0 0,13.32092 -48.5688,0 0,-68.34411 z"
         style="font-style:normal;font-variant:normal;font-weight:bold;font-stretch:normal;font-size:93.75px;font-family:sans-serif;-inkscape-font-specification:'sans-serif Bold';fill:#ffffff"
         id="path4292" />
      <path
         inkscape:connector-curvature="0"
         d="m 746.55139,918.39313 47.56165,0 0,13.32092 -29.93775,0 0,12.72583 28.15247,0 0,13.32092 -28.15247,0 0,15.65552 30.94483,0 0,13.32092 -48.56873,0 0,-68.34411 z"
         style="font-style:normal;font-variant:normal;font-weight:bold;font-stretch:normal;font-size:93.75px;font-family:sans-serif;-inkscape-font-specification:'sans-serif Bold';fill:#ffffff"
         id="path4294" />
      <path
         inkscape:connector-curvature="0"
         d="m 858.19995,920.54462 0,14.46533 q -5.63049,-2.5177 -10.98633,-3.79944 -5.35583,-1.28174 -10.11657,-1.28174 -6.31714,0 -9.33838,1.7395 -3.02124,1.73951 -3.02124,5.40162 0,2.74658 2.01416,4.30297 2.05993,1.51062 7.41577,2.60926 l 7.50732,1.51062 q 11.39832,2.28882 16.20484,6.958 4.80651,4.66919 4.80651,13.27515 0,11.30676 -6.72912,16.8457 -6.68335,5.49317 -20.46204,5.49317 -6.50024,0 -13.04626,-1.23596 -6.54602,-1.23597 -13.09204,-3.66211 l 0,-14.87732 q 6.54602,3.479 12.63427,5.26428 6.13404,1.7395 11.81031,1.7395 5.76782,0 8.83484,-1.92261 3.06701,-1.9226 3.06701,-5.49316 0,-3.20435 -2.10571,-4.94385 -2.05994,-1.7395 -8.28552,-3.11279 l -6.82068,-1.51062 q -10.25391,-2.19727 -15.01465,-7.00378 -4.71497,-4.80652 -4.71497,-12.95472 0,-10.20813 6.5918,-15.70129 6.5918,-5.49316 18.95142,-5.49316 5.63049,0 11.58142,0.86975 5.95093,0.82397 12.31384,2.5177 z"
         style="font-style:normal;font-variant:normal;font-weight:bold;font-stretch:normal;font-size:93.75px;font-family:sans-serif;-inkscape-font-specification:'sans-serif Bold';fill:#ffffff"
         id="path4296" />
      <path
         inkscape:connector-curvature="0"
         d="m 870.05603,918.39313 62.98828,0 0,13.32092 -22.6593,0 0,55.02319 -17.6239,0 0,-55.02319 -22.70508,0 0,-13.32092 z"
         style="font-style:normal;font-variant:normal;font-weight:bold;font-stretch:normal;font-size:93.75px;font-family:sans-serif;-inkscape-font-specification:'sans-serif Bold';fill:#ffffff"
         id="path4298" />
      <path
         inkscape:connector-curvature="0"
         d="m 942.10803,918.39313 47.56165,0 0,13.32092 -29.93775,0 0,12.72583 28.15247,0 0,13.32092 -28.15247,0 0,15.65552 30.94483,0 0,13.32092 -48.56873,0 0,-68.34411 z"
         style="font-style:normal;font-variant:normal;font-weight:bold;font-stretch:normal;font-size:93.75px;font-family:sans-serif;-inkscape-font-specification:'sans-serif Bold';fill:#ffffff"
         id="path4300" />
      <path
         inkscape:connector-curvature="0"
         d="m 1063.8274,948.69708 q 5.5389,0 7.9193,-2.05993 2.4262,-2.05994 2.4262,-6.77491 0,-4.66919 -2.4262,-6.68335 -2.3804,-2.01416 -7.9193,-2.01416 l -7.4158,0 0,17.53235 7.4158,0 z m -7.4158,12.17652 0,25.86364 -17.6239,0 0,-68.34411 26.9165,0 q 13.5041,0 19.7754,4.53186 6.3172,4.53186 6.3172,14.328 0,6.7749 -3.2959,11.12366 -3.2502,4.34875 -9.842,6.40869 3.6164,0.82397 6.4545,3.75366 2.8839,2.88391 5.8136,8.78906 l 9.5673,19.40918 -18.7683,0 -8.3313,-16.98303 q -2.5177,-5.12695 -5.127,-7.00378 -2.5635,-1.87683 -6.8665,-1.87683 l -4.9896,0 z"
         style="font-style:normal;font-variant:normal;font-weight:bold;font-stretch:normal;font-size:93.75px;font-family:sans-serif;-inkscape-font-specification:'sans-serif Bold';fill:#ffffff"
         id="path4302" />
      <path
         inkscape:connector-curvature="0"
         d="m 1110.9313,918.39313 47.5616,0 0,13.32092 -29.9377,0 0,12.72583 28.1524,0 0,13.32092 -28.1524,0 0,15.65552 30.9448,0 0,13.32092 -48.5687,0 0,-68.34411 z"
         style="font-style:normal;font-variant:normal;font-weight:bold;font-stretch:normal;font-size:93.75px;font-family:sans-serif;-inkscape-font-specification:'sans-serif Bold';fill:#ffffff"
         id="path4304" />
      <path
         inkscape:connector-curvature="0"
         d="m 1229.2174,982.98358 q -4.8523,2.5177 -10.1166,3.79944 -5.2643,1.28174 -10.9863,1.28174 -17.0746,0 -27.0538,-9.52149 -9.9793,-9.56726 -9.9793,-25.90942 0,-16.38794 9.9793,-25.90942 9.9792,-9.56726 27.0538,-9.56726 5.722,0 10.9863,1.28173 5.2643,1.28174 10.1166,3.79944 l 0,14.1449 q -4.8981,-3.34168 -9.6588,-4.89807 -4.7607,-1.5564 -10.025,-1.5564 -9.43,0 -14.8316,6.04248 -5.4016,6.04248 -5.4016,16.6626 0,10.57434 5.4016,16.61682 5.4016,6.04248 14.8316,6.04248 5.2643,0 10.025,-1.55639 4.7607,-1.5564 9.6588,-4.89808 l 0,14.1449 z"
         style="font-style:normal;font-variant:normal;font-weight:bold;font-stretch:normal;font-size:93.75px;font-family:sans-serif;-inkscape-font-specification:'sans-serif Bold';fill:#ffffff"
         id="path4306" />
      <path
         inkscape:connector-curvature="0"
         d="m 1243.8658,918.39313 17.6239,0 0,40.96985 q 0,8.46862 2.7466,12.13073 2.7924,3.61634 9.0637,3.61634 6.3172,0 9.0638,-3.61634 2.7923,-3.66211 2.7923,-12.13073 l 0,-40.96985 17.6239,0 0,40.96985 q 0,14.5111 -7.2784,21.60644 -7.2785,7.09534 -22.2016,7.09534 -14.8773,0 -22.1557,-7.09534 -7.2785,-7.09534 -7.2785,-21.60644 l 0,-40.96985 z"
         style="font-style:normal;font-variant:normal;font-weight:bold;font-stretch:normal;font-size:93.75px;font-family:sans-serif;-inkscape-font-specification:'sans-serif Bold';fill:#ffffff"
         id="path4308" />
      <path
         inkscape:connector-curvature="0"
         d="m 1358.5814,974.28607 -27.5574,0 -4.3487,12.45117 -17.7155,0 25.3144,-68.34411 21.0113,0 25.3144,68.34411 -17.7155,0 -4.303,-12.45117 z m -23.1628,-12.68005 18.7225,0 -9.3384,-27.19116 -9.3841,27.19116 z"
         style="font-style:normal;font-variant:normal;font-weight:bold;font-stretch:normal;font-size:93.75px;font-family:sans-serif;-inkscape-font-specification:'sans-serif Bold';fill:#ffffff"
         id="path4310" />
      <path
         inkscape:connector-curvature="0"
         d="m 1407.2417,931.71405 0,41.70227 6.3171,0 q 10.8033,0 16.4795,-5.35583 5.7221,-5.35584 5.7221,-15.56397 0,-10.16235 -5.6763,-15.47241 -5.6763,-5.31006 -16.5253,-5.31006 l -6.3171,0 z m -17.6239,-13.32092 18.5852,0 q 15.564,0 23.1628,2.24304 7.6447,2.19727 13.0921,7.50732 4.8065,4.62342 7.1411,10.6659 2.3346,6.04248 2.3346,13.68713 0,7.73621 -2.3346,13.82446 -2.3346,6.04248 -7.1411,10.6659 -5.4932,5.31006 -13.1836,7.5531 -7.6904,2.19726 -23.0713,2.19726 l -18.5852,0 0,-68.34411 z"
         style="font-style:normal;font-variant:normal;font-weight:bold;font-stretch:normal;font-size:93.75px;font-family:sans-serif;-inkscape-font-specification:'sans-serif Bold';fill:#ffffff"
         id="path4312" />
      <path
         inkscape:connector-curvature="0"
         d="m 1492.4773,948.69708 q 5.5389,0 7.9193,-2.05993 2.4262,-2.05994 2.4262,-6.77491 0,-4.66919 -2.4262,-6.68335 -2.3804,-2.01416 -7.9193,-2.01416 l -7.4158,0 0,17.53235 7.4158,0 z m -7.4158,12.17652 0,25.86364 -17.6239,0 0,-68.34411 26.9165,0 q 13.5041,0 19.7754,4.53186 6.3172,4.53186 6.3172,14.328 0,6.7749 -3.2959,11.12366 -3.2502,4.34875 -9.842,6.40869 3.6164,0.82397 6.4545,3.75366 2.8839,2.88391 5.8136,8.78906 l 9.5673,19.40918 -18.7683,0 -8.3313,-16.98303 q -2.5177,-5.12695 -5.127,-7.00378 -2.5635,-1.87683 -6.8665,-1.87683 l -4.9896,0 z"
         style="font-style:normal;font-variant:normal;font-weight:bold;font-stretch:normal;font-size:93.75px;font-family:sans-serif;-inkscape-font-specification:'sans-serif Bold';fill:#ffffff"
         id="path4314" />
      <path
         inkscape:connector-curvature="0"
         d="m 1570.8007,929.92877 q -8.0567,0 -12.497,5.95093 -4.4403,5.95093 -4.4403,16.75415 0,10.75745 4.4403,16.70837 4.4403,5.95093 12.497,5.95093 8.1024,0 12.5427,-5.95093 4.4403,-5.95092 4.4403,-16.70837 0,-10.80322 -4.4403,-16.75415 -4.4403,-5.95093 -12.5427,-5.95093 z m 0,-12.7716 q 16.4795,0 25.8178,9.42993 9.3384,9.42993 9.3384,26.04675 0,16.57105 -9.3384,26.00098 -9.3383,9.42993 -25.8178,9.42993 -16.4338,0 -25.8179,-9.42993 -9.3384,-9.42993 -9.3384,-26.00098 0,-16.61682 9.3384,-26.04675 9.3841,-9.42993 25.8179,-9.42993 z"
         style="font-style:normal;font-variant:normal;font-weight:bold;font-stretch:normal;font-size:93.75px;font-family:sans-serif;-inkscape-font-specification:'sans-serif Bold';fill:#ffffff"
         id="path4316" />
    </g>
  </g>
</svg>
