<?xml version="1.0" encoding="UTF-8" standalone="no"?>
<!-- Created with Inkscape (http://www.inkscape.org/) -->

<svg
   xmlns:dc="http://purl.org/dc/elements/1.1/"
   xmlns:cc="http://creativecommons.org/ns#"
   xmlns:rdf="http://www.w3.org/1999/02/22-rdf-syntax-ns#"
   xmlns:svg="http://www.w3.org/2000/svg"
   xmlns="http://www.w3.org/2000/svg"
   xmlns:sodipodi="http://sodipodi.sourceforge.net/DTD/sodipodi-0.dtd"
   xmlns:inkscape="http://www.inkscape.org/namespaces/inkscape"
   width="210mm"
   height="297mm"
   viewBox="0 0 744.09448819 1052.3622047"
   id="svg5329"
   version="1.1"
   inkscape:version="0.91 r13725"
   sodipodi:docname="drawing.svg">
  <defs
     id="defs5331" />
  <sodipodi:namedview
     id="base"
     pagecolor="#ffffff"
     bordercolor="#666666"
     borderopacity="1.0"
     inkscape:pageopacity="0.0"
     inkscape:pageshadow="2"
     inkscape:zoom="0.7"
     inkscape:cx="341.41561"
     inkscape:cy="634.6544"
     inkscape:document-units="px"
     inkscape:current-layer="layer1"
     showgrid="false"
     showguides="true"
     inkscape:guide-bbox="true"
     inkscape:window-width="1920"
     inkscape:window-height="1043"
     inkscape:window-x="0"
     inkscape:window-y="0"
     inkscape:window-maximized="1">
    <sodipodi:guide
       position="370,522.85715"
       orientation="1,0"
       id="guide5924" />
    <sodipodi:guide
       position="370,522.85715"
       orientation="0,1"
       id="guide5926" />
  </sodipodi:namedview>
  <metadata
     id="metadata5334">
    <rdf:RDF>
      <cc:Work
         rdf:about="">
        <dc:format>image/svg+xml</dc:format>
        <dc:type
           rdf:resource="http://purl.org/dc/dcmitype/StillImage" />
        <dc:title></dc:title>
      </cc:Work>
    </rdf:RDF>
  </metadata>
  <g
     inkscape:label="Layer 1"
     inkscape:groupmode="layer"
     id="layer1">
    <circle
       style="fill:#000000;fill-opacity:1;stroke:none;stroke-width:12;stroke-linecap:round;stroke-linejoin:miter;stroke-miterlimit:4;stroke-dasharray:none;stroke-dashoffset:0;stroke-opacity:1"
       id="path5922"
       cx="372.04724"
       cy="526.18109"
       r="370" />
    <path
       inkscape:connector-curvature="0"
       style="fill:#ffffff"
       d="m 611.46519,718.23329 0,-147.65625 c 0,-5.84473 -4.70215,-10.54688 -10.54688,-10.54688 l -144.14062,0 c -23.29102,0 -42.1875,18.89648 -42.1875,42.1875 l 0,140.625 c 0,23.29102 18.89648,42.1875 42.1875,42.1875 l 144.14062,0 c 5.84473,0 10.54688,-4.70215 10.54688,-10.54687 l 0,-7.03125 c 0,-3.29591 -1.53808,-6.28419 -3.91114,-8.21778 -1.84569,-6.76756 -1.84569,-26.05956 0,-32.82715 2.37306,-1.88964 3.91114,-4.87792 3.91114,-8.17383 z m -140.625,-99.31641 c 0,-1.45019 1.18653,-2.63672 2.63672,-2.63672 l 93.16406,0 c 1.45019,0 2.63671,1.18653 2.63671,2.63672 l 0,8.78906 c 0,1.45019 -1.18652,2.63673 -2.63671,2.63673 l -93.16406,0 c -1.45019,0 -2.63672,-1.18654 -2.63672,-2.63673 l 0,-8.78906 z m 0,28.125 c 0,-1.45019 1.18653,-2.63672 2.63672,-2.63672 l 93.16406,0 c 1.45019,0 2.63671,1.18653 2.63671,2.63672 l 0,8.78907 c 0,1.45018 -1.18652,2.63671 -2.63671,2.63671 l -93.16406,0 c -1.45019,0 -2.63672,-1.18653 -2.63672,-2.63671 l 0,-8.78907 z m 111.35743,109.86328 -125.41993,0 c -7.77832,0 -14.0625,-6.28418 -14.0625,-14.0625 0,-7.73437 6.32812,-14.0625 14.0625,-14.0625 l 125.41993,0 c -0.83498,7.51465 -0.83498,20.61035 0,28.125 z"
       id="path4206" />
    <path
       inkscape:connector-curvature="0"
       style="fill:#ffffff"
       d="m 507.98475,284.03824 -4.68751,0 0,11.71876 c 0,3.86718 -3.16406,7.03124 -7.03125,7.03124 l -23.43749,0 c -3.8672,0 -7.03126,-3.16406 -7.03126,-7.03124 l 0,-11.71876 -187.5,0 0,11.71876 c 0,3.86718 -3.16406,7.03124 -7.03125,7.03124 l -23.4375,0 c -3.86719,0 -7.03125,-3.16406 -7.03125,-7.03124 l 0,-11.71876 -4.6875,0 c -7.79297,0 -14.0625,6.26953 -14.0625,14.0625 l 0,196.87501 c 0,7.79296 6.26953,14.06249 14.0625,14.06249 l 4.6875,0 0,-11.71876 c 0,-3.86718 3.16406,-7.03124 7.03125,-7.03124 l 23.4375,0 c 3.86719,0 7.03125,3.16406 7.03125,7.03124 l 0,11.71876 187.5,0 0,-11.71876 c 0,-3.86718 3.16406,-7.03124 7.03126,-7.03124 l 23.43749,0 c 3.86719,0 7.03125,3.16406 7.03125,7.03124 l 0,11.71876 4.68751,0 c 7.79297,0 14.0625,-6.26953 14.0625,-14.06249 l 0,-196.87501 c 0,-7.79297 -6.26953,-14.0625 -14.0625,-14.0625 z M 278.29724,464.50699 c 0,3.86719 -3.16406,7.03125 -7.03125,7.03125 l -23.4375,0 c -3.86719,0 -7.03125,-3.16406 -7.03125,-7.03125 l 0,-23.4375 c 0,-3.86719 3.16406,-7.03125 7.03125,-7.03125 l 23.4375,0 c 3.86719,0 7.03125,3.16406 7.03125,7.03125 l 0,23.4375 z m 0,-56.25 c 0,3.86719 -3.16406,7.03126 -7.03125,7.03126 l -23.4375,0 c -3.86719,0 -7.03125,-3.16407 -7.03125,-7.03126 l 0,-23.4375 c 0,-3.86719 3.16406,-7.03126 7.03125,-7.03126 l 23.4375,0 c 3.86719,0 7.03125,3.16407 7.03125,7.03126 l 0,23.4375 z m 0,-56.25 c 0,3.86719 -3.16406,7.03125 -7.03125,7.03125 l -23.4375,0 c -3.86719,0 -7.03125,-3.16406 -7.03125,-7.03125 l 0,-23.43751 c 0,-3.86717 3.16406,-7.03124 7.03125,-7.03124 l 23.4375,0 c 3.86719,0 7.03125,3.16407 7.03125,7.03124 l 0,23.43751 z m 159.375,121.875 c 0,3.86719 -3.16406,7.03125 -7.03124,7.03125 l -117.18751,0 c -3.86718,0 -7.03125,-3.16406 -7.03125,-7.03125 l 0,-56.25 c 0,-3.86718 3.16407,-7.03126 7.03125,-7.03126 l 117.18751,0 c 3.86718,0 7.03124,3.16408 7.03124,7.03126 l 0,56.25 z m 0,-98.4375 c 0,3.86719 -3.16406,7.03125 -7.03124,7.03125 l -117.18751,0 c -3.86718,0 -7.03125,-3.16406 -7.03125,-7.03125 l 0,-56.25 c 0,-3.86718 3.16407,-7.03125 7.03125,-7.03125 l 117.18751,0 c 3.86718,0 7.03124,3.16407 7.03124,7.03125 l 0,56.25 z m 65.625,89.0625 c 0,3.86719 -3.16406,7.03125 -7.03125,7.03125 l -23.43749,0 c -3.8672,0 -7.03126,-3.16406 -7.03126,-7.03125 l 0,-23.4375 c 0,-3.86719 3.16406,-7.03125 7.03126,-7.03125 l 23.43749,0 c 3.86719,0 7.03125,3.16406 7.03125,7.03125 l 0,23.4375 z m 0,-56.25 c 0,3.86719 -3.16406,7.03126 -7.03125,7.03126 l -23.43749,0 c -3.8672,0 -7.03126,-3.16407 -7.03126,-7.03126 l 0,-23.4375 c 0,-3.86719 3.16406,-7.03126 7.03126,-7.03126 l 23.43749,0 c 3.86719,0 7.03125,3.16407 7.03125,7.03126 l 0,23.4375 z m 0,-56.25 c 0,3.86719 -3.16406,7.03125 -7.03125,7.03125 l -23.43749,0 c -3.8672,0 -7.03126,-3.16406 -7.03126,-7.03125 l 0,-23.43751 c 0,-3.86717 3.16406,-7.03124 7.03126,-7.03124 l 23.43749,0 c 3.86719,0 7.03125,3.16407 7.03125,7.03124 l 0,23.43751 z"
       id="path4216" />
    <path
       inkscape:connector-curvature="0"
       style="fill:#ffffff"
       d="m 334.56735,569.04346 c 0,-9.54035 -9.27229,-16.26387 -18.28093,-13.40747 l -140.61811,41.52758 c -5.84462,1.84568 -9.84358,7.25085 -9.84358,13.40309 l 0,114.8798 c -4.41643,-1.04588 -9.1053,-1.72262 -14.06225,-1.72262 -23.29939,0 -42.18675,12.59011 -42.18675,28.1245 0,15.53439 18.88736,28.1245 42.18675,28.1245 23.29939,0 42.18676,-12.59011 42.18676,-28.1245 l 0,-102.69399 112.49801,-32.96718 0,81.13478 c -4.41643,-1.04587 -9.10531,-1.72262 -14.06225,-1.72262 -23.2994,0 -42.18676,12.59011 -42.18676,28.12451 0,15.53439 18.88736,28.1245 42.18676,28.1245 23.29939,0 42.18675,-12.59011 42.18675,-28.1245 l -0.005,-154.68038 z"
       id="path4226" />
  </g>
</svg>
